<mxfile host="app.diagrams.net" modified="2023-09-10T18:25:06.691Z" agent="Mozilla/5.0 (Windows NT 10.0; Win64; x64) AppleWebKit/537.36 (KHTML, like Gecko) Chrome/116.0.0.0 Safari/537.36" etag="ZrFa_2_QxpTaQZNfcgxa" version="21.6.9" type="google">
  <diagram name="Page-1" id="b426aELSeM76tzW_q8hJ">
    <mxGraphModel grid="1" page="1" gridSize="10" guides="1" tooltips="1" connect="1" arrows="1" fold="1" pageScale="1" pageWidth="850" pageHeight="1100" math="0" shadow="0">
      <root>
        <mxCell id="0" />
        <mxCell id="1" parent="0" />
        <mxCell id="wOB_5UVZatr3jlE8OmUu-1" value="Help Desk Ticketing System" style="swimlane;whiteSpace=wrap;html=1;startSize=30;fontSize=14;" vertex="1" parent="1">
          <mxGeometry x="710" y="20" width="590" height="850" as="geometry" />
        </mxCell>
        <mxCell id="wOB_5UVZatr3jlE8OmUu-15" value="&lt;b&gt;&lt;font style=&quot;font-size: 14px;&quot;&gt;Register&lt;/font&gt;&lt;/b&gt;" style="ellipse;whiteSpace=wrap;html=1;fillColor=#ffcd28;strokeColor=#d79b00;gradientColor=#ffa500;" vertex="1" parent="wOB_5UVZatr3jlE8OmUu-1">
          <mxGeometry x="70" y="40" width="170" height="70" as="geometry" />
        </mxCell>
        <mxCell id="wOB_5UVZatr3jlE8OmUu-14" value="&lt;b&gt;&lt;font style=&quot;font-size: 14px;&quot;&gt;Recovery password&lt;/font&gt;&lt;/b&gt;" style="ellipse;whiteSpace=wrap;html=1;fillColor=#fff2cc;gradientColor=#ffd966;strokeColor=#d6b656;" vertex="1" parent="wOB_5UVZatr3jlE8OmUu-1">
          <mxGeometry x="70" y="140" width="170" height="70" as="geometry" />
        </mxCell>
        <mxCell id="wOB_5UVZatr3jlE8OmUu-23" value="&lt;span style=&quot;font-size: 14px;&quot;&gt;&lt;b&gt;Manage settings&lt;br&gt;&lt;/b&gt;&lt;/span&gt;" style="ellipse;whiteSpace=wrap;html=1;fillColor=#fff2cc;gradientColor=#ffd966;strokeColor=#d6b656;" vertex="1" parent="wOB_5UVZatr3jlE8OmUu-1">
          <mxGeometry x="60" y="225" width="170" height="70" as="geometry" />
        </mxCell>
        <mxCell id="wOB_5UVZatr3jlE8OmUu-62" style="edgeStyle=orthogonalEdgeStyle;rounded=0;orthogonalLoop=1;jettySize=auto;html=1;entryX=1.02;entryY=0.518;entryDx=0;entryDy=0;entryPerimeter=0;dashed=1;" edge="1" parent="wOB_5UVZatr3jlE8OmUu-1" source="wOB_5UVZatr3jlE8OmUu-10" target="wOB_5UVZatr3jlE8OmUu-14">
          <mxGeometry relative="1" as="geometry">
            <Array as="points">
              <mxPoint x="300" y="255" />
              <mxPoint x="300" y="176" />
              <mxPoint x="243" y="176" />
            </Array>
          </mxGeometry>
        </mxCell>
        <mxCell id="wOB_5UVZatr3jlE8OmUu-10" value="&lt;b&gt;&lt;font style=&quot;font-size: 14px;&quot;&gt;Manage sessions&lt;br&gt;&lt;/font&gt;&lt;/b&gt;" style="ellipse;whiteSpace=wrap;html=1;fillColor=#fff2cc;gradientColor=#ffd966;strokeColor=#d6b656;" vertex="1" parent="wOB_5UVZatr3jlE8OmUu-1">
          <mxGeometry x="360" y="220" width="170" height="70" as="geometry" />
        </mxCell>
        <mxCell id="wOB_5UVZatr3jlE8OmUu-59" style="edgeStyle=orthogonalEdgeStyle;rounded=0;orthogonalLoop=1;jettySize=auto;html=1;entryX=1;entryY=0.5;entryDx=0;entryDy=0;dashed=1;" edge="1" parent="wOB_5UVZatr3jlE8OmUu-1" source="wOB_5UVZatr3jlE8OmUu-46" target="wOB_5UVZatr3jlE8OmUu-14">
          <mxGeometry relative="1" as="geometry" />
        </mxCell>
        <mxCell id="wOB_5UVZatr3jlE8OmUu-46" value="&lt;span style=&quot;font-size: 14px;&quot;&gt;&lt;b&gt;Manage notifications&lt;/b&gt;&lt;/span&gt;" style="ellipse;whiteSpace=wrap;html=1;fillColor=#fff2cc;gradientColor=#ffd966;strokeColor=#d6b656;" vertex="1" parent="wOB_5UVZatr3jlE8OmUu-1">
          <mxGeometry x="361" y="58" width="170" height="70" as="geometry" />
        </mxCell>
        <mxCell id="wOB_5UVZatr3jlE8OmUu-57" style="edgeStyle=orthogonalEdgeStyle;rounded=0;orthogonalLoop=1;jettySize=auto;html=1;entryX=1;entryY=0.5;entryDx=0;entryDy=0;dashed=1;" edge="1" parent="wOB_5UVZatr3jlE8OmUu-1">
          <mxGeometry relative="1" as="geometry">
            <mxPoint x="362" y="176" as="sourcePoint" />
            <mxPoint x="241.00000000000227" y="176" as="targetPoint" />
          </mxGeometry>
        </mxCell>
        <mxCell id="wOB_5UVZatr3jlE8OmUu-47" value="&lt;span style=&quot;font-size: 14px;&quot;&gt;&lt;b&gt;Manage general apperance&lt;/b&gt;&lt;/span&gt;" style="ellipse;whiteSpace=wrap;html=1;fillColor=#fff2cc;gradientColor=#ffd966;strokeColor=#d6b656;" vertex="1" parent="wOB_5UVZatr3jlE8OmUu-1">
          <mxGeometry x="361" y="140" width="170" height="70" as="geometry" />
        </mxCell>
        <mxCell id="wOB_5UVZatr3jlE8OmUu-9" value="&lt;b&gt;&lt;font style=&quot;font-size: 14px;&quot;&gt;Manage tickets&lt;/font&gt;&lt;/b&gt;" style="ellipse;whiteSpace=wrap;html=1;fillColor=#dae8fc;gradientColor=#7ea6e0;strokeColor=#6c8ebf;" vertex="1" parent="wOB_5UVZatr3jlE8OmUu-1">
          <mxGeometry x="60" y="640" width="170" height="70" as="geometry" />
        </mxCell>
        <mxCell id="wOB_5UVZatr3jlE8OmUu-73" style="edgeStyle=orthogonalEdgeStyle;rounded=0;orthogonalLoop=1;jettySize=auto;html=1;dashed=1;" edge="1" parent="wOB_5UVZatr3jlE8OmUu-1" source="wOB_5UVZatr3jlE8OmUu-41" target="wOB_5UVZatr3jlE8OmUu-9">
          <mxGeometry relative="1" as="geometry">
            <Array as="points">
              <mxPoint x="250" y="380" />
              <mxPoint x="250" y="675" />
            </Array>
          </mxGeometry>
        </mxCell>
        <mxCell id="wOB_5UVZatr3jlE8OmUu-41" value="&lt;b&gt;&lt;font style=&quot;font-size: 14px;&quot;&gt;Create ticket&lt;/font&gt;&lt;/b&gt;" style="ellipse;whiteSpace=wrap;html=1;fillColor=#e6d0de;gradientColor=#d5739d;strokeColor=#996185;" vertex="1" parent="wOB_5UVZatr3jlE8OmUu-1">
          <mxGeometry x="60" y="350" width="170" height="70" as="geometry" />
        </mxCell>
        <mxCell id="wOB_5UVZatr3jlE8OmUu-72" style="edgeStyle=orthogonalEdgeStyle;rounded=0;orthogonalLoop=1;jettySize=auto;html=1;entryX=1;entryY=0.5;entryDx=0;entryDy=0;dashed=1;" edge="1" parent="wOB_5UVZatr3jlE8OmUu-1" source="wOB_5UVZatr3jlE8OmUu-42" target="wOB_5UVZatr3jlE8OmUu-9">
          <mxGeometry relative="1" as="geometry">
            <Array as="points">
              <mxPoint x="250" y="475" />
              <mxPoint x="250" y="675" />
            </Array>
          </mxGeometry>
        </mxCell>
        <mxCell id="wOB_5UVZatr3jlE8OmUu-42" value="&lt;b&gt;&lt;font style=&quot;font-size: 14px;&quot;&gt;View ticket&lt;/font&gt;&lt;/b&gt;" style="ellipse;whiteSpace=wrap;html=1;fillColor=#e6d0de;gradientColor=#d5739d;strokeColor=#996185;" vertex="1" parent="wOB_5UVZatr3jlE8OmUu-1">
          <mxGeometry x="60" y="440" width="170" height="70" as="geometry" />
        </mxCell>
        <mxCell id="wOB_5UVZatr3jlE8OmUu-65" style="edgeStyle=orthogonalEdgeStyle;rounded=0;orthogonalLoop=1;jettySize=auto;html=1;endArrow=classic;endFill=1;dashed=1;" edge="1" parent="wOB_5UVZatr3jlE8OmUu-1" source="wOB_5UVZatr3jlE8OmUu-44" target="wOB_5UVZatr3jlE8OmUu-9">
          <mxGeometry relative="1" as="geometry" />
        </mxCell>
        <mxCell id="wOB_5UVZatr3jlE8OmUu-44" value="&lt;b&gt;&lt;font style=&quot;font-size: 14px;&quot;&gt;Search tickets&lt;/font&gt;&lt;/b&gt;" style="ellipse;whiteSpace=wrap;html=1;fillColor=#e6d0de;gradientColor=#d5739d;strokeColor=#996185;" vertex="1" parent="wOB_5UVZatr3jlE8OmUu-1">
          <mxGeometry x="60" y="530" width="170" height="70" as="geometry" />
        </mxCell>
        <mxCell id="wOB_5UVZatr3jlE8OmUu-54" value="&amp;lt;&amp;lt;extends&amp;gt;&amp;gt;" style="edgeLabel;html=1;align=center;verticalAlign=middle;resizable=0;points=[];rotation=-60;" connectable="0" vertex="1" parent="wOB_5UVZatr3jlE8OmUu-1">
          <mxGeometry x="320" y="254.9990909090909" as="geometry">
            <mxPoint x="1" y="4" as="offset" />
          </mxGeometry>
        </mxCell>
        <mxCell id="wOB_5UVZatr3jlE8OmUu-63" style="edgeStyle=orthogonalEdgeStyle;rounded=0;orthogonalLoop=1;jettySize=auto;html=1;entryX=1;entryY=0.5;entryDx=0;entryDy=0;dashed=1;" edge="1" parent="wOB_5UVZatr3jlE8OmUu-1" source="wOB_5UVZatr3jlE8OmUu-55" target="wOB_5UVZatr3jlE8OmUu-14">
          <mxGeometry relative="1" as="geometry">
            <mxPoint x="250" y="180" as="targetPoint" />
            <Array as="points">
              <mxPoint x="300" y="330" />
              <mxPoint x="300" y="175" />
            </Array>
          </mxGeometry>
        </mxCell>
        <mxCell id="wOB_5UVZatr3jlE8OmUu-55" value="&lt;b&gt;&lt;font style=&quot;font-size: 14px;&quot;&gt;Manage profile&lt;br&gt;&lt;/font&gt;&lt;/b&gt;" style="ellipse;whiteSpace=wrap;html=1;fillColor=#fff2cc;gradientColor=#ffd966;strokeColor=#d6b656;" vertex="1" parent="wOB_5UVZatr3jlE8OmUu-1">
          <mxGeometry x="359" y="300" width="170" height="70" as="geometry" />
        </mxCell>
        <mxCell id="wOB_5UVZatr3jlE8OmUu-60" value="&amp;lt;&amp;lt;extends&amp;gt;&amp;gt;" style="edgeLabel;html=1;align=center;verticalAlign=middle;resizable=0;points=[];" connectable="0" vertex="1" parent="wOB_5UVZatr3jlE8OmUu-1">
          <mxGeometry x="310" y="109.99909090909091" as="geometry">
            <mxPoint x="1" y="4" as="offset" />
          </mxGeometry>
        </mxCell>
        <mxCell id="wOB_5UVZatr3jlE8OmUu-61" value="&amp;lt;&amp;lt;extends&amp;gt;&amp;gt;" style="edgeLabel;html=1;align=center;verticalAlign=middle;resizable=0;points=[];rotation=-60;" connectable="0" vertex="1" parent="wOB_5UVZatr3jlE8OmUu-1">
          <mxGeometry x="320" y="174.9990909090909" as="geometry">
            <mxPoint x="1" y="4" as="offset" />
          </mxGeometry>
        </mxCell>
        <mxCell id="wOB_5UVZatr3jlE8OmUu-64" value="&amp;lt;&amp;lt;extends&amp;gt;&amp;gt;" style="edgeLabel;html=1;align=center;verticalAlign=middle;resizable=0;points=[];rotation=-60;" connectable="0" vertex="1" parent="wOB_5UVZatr3jlE8OmUu-1">
          <mxGeometry x="230" y="299.9990909090909" as="geometry">
            <mxPoint x="-104.9852262806237" y="74.42820323027553" as="offset" />
          </mxGeometry>
        </mxCell>
        <mxCell id="wOB_5UVZatr3jlE8OmUu-77" value="&amp;lt;&amp;lt;extends&amp;gt;&amp;gt;" style="edgeLabel;html=1;align=center;verticalAlign=middle;resizable=0;points=[];rotation=-60;" connectable="0" vertex="1" parent="wOB_5UVZatr3jlE8OmUu-1">
          <mxGeometry x="320" y="209.9990909090909" as="geometry">
            <mxPoint x="-104.9852262806237" y="74.42820323027553" as="offset" />
          </mxGeometry>
        </mxCell>
        <mxCell id="wOB_5UVZatr3jlE8OmUu-129" value="&amp;lt;&amp;lt;extends&amp;gt;&amp;gt;" style="edgeLabel;html=1;align=center;verticalAlign=middle;resizable=0;points=[];rotation=-60;" connectable="0" vertex="1" parent="wOB_5UVZatr3jlE8OmUu-1">
          <mxGeometry x="240" y="459.9990909090909" as="geometry">
            <mxPoint x="-104.9852262806237" y="74.42820323027553" as="offset" />
          </mxGeometry>
        </mxCell>
        <mxCell id="wOB_5UVZatr3jlE8OmUu-78" value="&amp;lt;&amp;lt;extends&amp;gt;&amp;gt;" style="edgeLabel;html=1;align=center;verticalAlign=middle;resizable=0;points=[];rotation=0;" connectable="0" vertex="1" parent="wOB_5UVZatr3jlE8OmUu-1">
          <mxGeometry x="250" y="539.9990909090909" as="geometry">
            <mxPoint x="-104.9852262806237" y="74.42820323027553" as="offset" />
          </mxGeometry>
        </mxCell>
        <mxCell id="wOB_5UVZatr3jlE8OmUu-12" value="&lt;b&gt;&lt;font style=&quot;font-size: 14px;&quot;&gt;Manage users&lt;/font&gt;&lt;/b&gt;" style="ellipse;whiteSpace=wrap;html=1;fillColor=#d5e8d4;gradientColor=#97d077;strokeColor=#82b366;" vertex="1" parent="wOB_5UVZatr3jlE8OmUu-1">
          <mxGeometry x="60" y="740" width="170" height="70" as="geometry" />
        </mxCell>
        <mxCell id="wOB_5UVZatr3jlE8OmUu-130" style="edgeStyle=orthogonalEdgeStyle;rounded=0;orthogonalLoop=1;jettySize=auto;html=1;endArrow=none;endFill=0;" edge="1" parent="1" source="wOB_5UVZatr3jlE8OmUu-2" target="wOB_5UVZatr3jlE8OmUu-41">
          <mxGeometry relative="1" as="geometry">
            <Array as="points">
              <mxPoint x="730" y="450" />
              <mxPoint x="730" y="405" />
            </Array>
          </mxGeometry>
        </mxCell>
        <mxCell id="wOB_5UVZatr3jlE8OmUu-132" style="edgeStyle=orthogonalEdgeStyle;rounded=0;orthogonalLoop=1;jettySize=auto;html=1;entryX=0;entryY=0.5;entryDx=0;entryDy=0;endArrow=none;endFill=0;" edge="1" parent="1" source="wOB_5UVZatr3jlE8OmUu-2" target="wOB_5UVZatr3jlE8OmUu-42">
          <mxGeometry relative="1" as="geometry">
            <Array as="points">
              <mxPoint x="730" y="450" />
              <mxPoint x="730" y="495" />
            </Array>
          </mxGeometry>
        </mxCell>
        <mxCell id="wOB_5UVZatr3jlE8OmUu-133" style="edgeStyle=orthogonalEdgeStyle;rounded=0;orthogonalLoop=1;jettySize=auto;html=1;entryX=0;entryY=0.5;entryDx=0;entryDy=0;endArrow=none;endFill=0;" edge="1" parent="1" source="wOB_5UVZatr3jlE8OmUu-2" target="wOB_5UVZatr3jlE8OmUu-44">
          <mxGeometry relative="1" as="geometry">
            <Array as="points">
              <mxPoint x="730" y="450" />
              <mxPoint x="730" y="585" />
            </Array>
          </mxGeometry>
        </mxCell>
        <mxCell id="wOB_5UVZatr3jlE8OmUu-134" style="edgeStyle=orthogonalEdgeStyle;rounded=0;orthogonalLoop=1;jettySize=auto;html=1;" edge="1" parent="1" source="wOB_5UVZatr3jlE8OmUu-2">
          <mxGeometry relative="1" as="geometry">
            <mxPoint x="615" y="250" as="targetPoint" />
          </mxGeometry>
        </mxCell>
        <mxCell id="wOB_5UVZatr3jlE8OmUu-2" value="Customer" style="shape=umlActor;verticalLabelPosition=bottom;verticalAlign=top;html=1;outlineConnect=0;fillColor=#e6d0de;gradientColor=#d5739d;strokeColor=#996185;fontStyle=1;fontSize=14;" vertex="1" parent="1">
          <mxGeometry x="600" y="420" width="30" height="60" as="geometry" />
        </mxCell>
        <mxCell id="wOB_5UVZatr3jlE8OmUu-135" style="edgeStyle=orthogonalEdgeStyle;rounded=0;orthogonalLoop=1;jettySize=auto;html=1;" edge="1" parent="1">
          <mxGeometry relative="1" as="geometry">
            <mxPoint x="600.04" y="690.0034782608695" as="sourcePoint" />
            <mxPoint x="600.04" y="120.00347826086963" as="targetPoint" />
            <Array as="points">
              <mxPoint x="570.04" y="689.96" />
              <mxPoint x="570.04" y="119.96000000000001" />
            </Array>
          </mxGeometry>
        </mxCell>
        <mxCell id="wOB_5UVZatr3jlE8OmUu-136" style="edgeStyle=orthogonalEdgeStyle;rounded=0;orthogonalLoop=1;jettySize=auto;html=1;endArrow=none;endFill=0;" edge="1" parent="1" source="wOB_5UVZatr3jlE8OmUu-16" target="wOB_5UVZatr3jlE8OmUu-9">
          <mxGeometry relative="1" as="geometry" />
        </mxCell>
        <mxCell id="wOB_5UVZatr3jlE8OmUu-16" value="Admin" style="shape=umlActor;verticalLabelPosition=bottom;verticalAlign=top;html=1;outlineConnect=0;fillColor=#dae8fc;gradientColor=#7ea6e0;strokeColor=#6c8ebf;fontStyle=1;fontSize=14;" vertex="1" parent="1">
          <mxGeometry x="600" y="665" width="30" height="60" as="geometry" />
        </mxCell>
        <mxCell id="wOB_5UVZatr3jlE8OmUu-138" style="edgeStyle=orthogonalEdgeStyle;rounded=0;orthogonalLoop=1;jettySize=auto;html=1;" edge="1" parent="1" source="wOB_5UVZatr3jlE8OmUu-19">
          <mxGeometry relative="1" as="geometry">
            <mxPoint x="615" y="750" as="targetPoint" />
          </mxGeometry>
        </mxCell>
        <mxCell id="wOB_5UVZatr3jlE8OmUu-139" style="edgeStyle=orthogonalEdgeStyle;rounded=0;orthogonalLoop=1;jettySize=auto;html=1;endArrow=none;endFill=0;" edge="1" parent="1" source="wOB_5UVZatr3jlE8OmUu-19" target="wOB_5UVZatr3jlE8OmUu-12">
          <mxGeometry relative="1" as="geometry">
            <Array as="points">
              <mxPoint x="660" y="795" />
              <mxPoint x="660" y="795" />
            </Array>
          </mxGeometry>
        </mxCell>
        <mxCell id="wOB_5UVZatr3jlE8OmUu-19" value="Superadmin" style="shape=umlActor;verticalLabelPosition=bottom;verticalAlign=top;html=1;outlineConnect=0;fillColor=#d5e8d4;gradientColor=#97d077;strokeColor=#82b366;fontStyle=1;fontSize=14;" vertex="1" parent="1">
          <mxGeometry x="600" y="773" width="30" height="60" as="geometry" />
        </mxCell>
        <mxCell id="wOB_5UVZatr3jlE8OmUu-31" style="edgeStyle=orthogonalEdgeStyle;rounded=0;orthogonalLoop=1;jettySize=auto;html=1;entryX=-0.01;entryY=0.368;entryDx=0;entryDy=0;entryPerimeter=0;endArrow=none;endFill=0;" edge="1" parent="1" source="wOB_5UVZatr3jlE8OmUu-20" target="wOB_5UVZatr3jlE8OmUu-14">
          <mxGeometry relative="1" as="geometry">
            <Array as="points">
              <mxPoint x="778" y="190" />
            </Array>
          </mxGeometry>
        </mxCell>
        <mxCell id="wOB_5UVZatr3jlE8OmUu-34" style="edgeStyle=orthogonalEdgeStyle;rounded=0;orthogonalLoop=1;jettySize=auto;html=1;entryX=0;entryY=0.5;entryDx=0;entryDy=0;endArrow=none;endFill=0;" edge="1" parent="1" source="wOB_5UVZatr3jlE8OmUu-20" target="wOB_5UVZatr3jlE8OmUu-23">
          <mxGeometry relative="1" as="geometry">
            <Array as="points">
              <mxPoint x="680" y="190" />
              <mxPoint x="680" y="280" />
            </Array>
          </mxGeometry>
        </mxCell>
        <mxCell id="wOB_5UVZatr3jlE8OmUu-20" value="User" style="shape=umlActor;verticalLabelPosition=bottom;verticalAlign=top;html=1;outlineConnect=0;fillColor=#fff2cc;gradientColor=#ffd966;strokeColor=#d6b656;fontStyle=1;fontSize=14;" vertex="1" parent="1">
          <mxGeometry x="600" y="160" width="30" height="60" as="geometry" />
        </mxCell>
        <mxCell id="wOB_5UVZatr3jlE8OmUu-27" style="edgeStyle=orthogonalEdgeStyle;rounded=0;orthogonalLoop=1;jettySize=auto;html=1;endArrow=none;endFill=0;" edge="1" parent="1" source="wOB_5UVZatr3jlE8OmUu-21" target="wOB_5UVZatr3jlE8OmUu-15">
          <mxGeometry relative="1" as="geometry" />
        </mxCell>
        <mxCell id="wOB_5UVZatr3jlE8OmUu-21" value="Visitor" style="shape=umlActor;verticalLabelPosition=bottom;verticalAlign=top;html=1;outlineConnect=0;fillColor=#ffcd28;strokeColor=#d79b00;fontStyle=1;fontSize=14;gradientColor=#ffa500;" vertex="1" parent="1">
          <mxGeometry x="600" y="65" width="30" height="60" as="geometry" />
        </mxCell>
      </root>
    </mxGraphModel>
  </diagram>
</mxfile>
